<svg xmlns="http://www.w3.org/2000/svg" viewBox="0 0 48 48">
  <circle cx="24" cy="24" r="23" fill="#1b4a4f"/>
  <circle cx="24" cy="24" r="19.5" fill="none" stroke="#d9a94e" stroke-width="1.2"/>
  <path d="M24 34 C 24 26 24 20 24 14" stroke="#e9dcc3" stroke-width="1.8" fill="none" stroke-linecap="round"/>
  <path d="M24 16 C 19 16 15.5 18.5 14 22 C 18.5 22 22 20 24 17 Z" fill="#d9a94e"/>
  <path d="M24 16 C 29 16 32.5 18.5 34 22 C 29.5 22 26 20 24 17 Z" fill="#e9dcc3"/>
  <path d="M24 21 C 20 21 17 23 15.5 26 C 19.5 26 22.5 24.5 24 22 Z" fill="#e9dcc3"/>
  <path d="M24 21 C 28 21 31 23 32.5 26 C 28.5 26 25.5 24.5 24 22 Z" fill="#d9a94e"/>
  <path d="M15 33 q 4.5 -3 9 0 t 9 0" stroke="#7fb4b8" stroke-width="1.6" fill="none" stroke-linecap="round"/>
</svg>
